PathFileType	4	(X/Y/Z)	HSS_squat3.trc
DataRate	CameraRate	NumFrames	NumMarkers	Units	OrigDataRate	OrigDataStartFrame	OrigNumFrames
120.0	120.0	4	44	mm	120.0	487	972
Frame#	Time		R.Shoulder		Offset		L.Shoulder		R.Elbow		R.Wrist.Radial		R.Wrist		R.Hand		L.Elbow		L.Wrist.Radial		L.Wrist		L.Hand		R.Hip		V.Sacral		L.PSIS		L.Hip		R.Thigh.Upper		R.Thigh.Front		R.Thigh.Rear		X.Shell.Lower.Thigh.Right		R.Knee.Lateral		R.Shank.Upper		R.Shank.Front		R.Shank.Rear		X.Shell.Lower.Shank.Right		R.Ankle.Lateral		R.Heel		R.Toe		L.Thigh.Upper		L.Thigh.Front		L.Thigh.Rear		X.Shell.Lower.Thigh.Left		L.Knee.Lateral		L.Shank.Upper		L.Shank.Front		L.Shank.Rear		X.Shell.Lower.Shank.Left		L.Ankle.Lateral		L.Heel		L.Toe		R.Troc		L.Troc		R.PSIS		L.ASIS		R.ASIS
			X1	Y1	Z1	X2	Y2	Z2	X3	Y3	Z3	X4	Y4	Z4	X5	Y5	Z5	X6	Y6	Z6	X7	Y7	Z7	X8	Y8	Z8	X9	Y9	Z9	X10	Y10	Z10	X11	Y11	Z11	X12	Y12	Z12	X13	Y13	Z13	X14	Y14	Z14	X15	Y15	Z15	X16	Y16	Z16	X17	Y17	Z17	X18	Y18	Z18	X19	Y19	Z19	X20	Y20	Z20	X21	Y21	Z21	X22	Y22	Z22	X23	Y23	Z23	X24	Y24	Z24	X25	Y25	Z25	X26	Y26	Z26	X27	Y27	Z27	X28	Y28	Z28	X29	Y29	Z29	X30	Y30	Z30	X31	Y31	Z31	X32	Y32	Z32	X33	Y33	Z33	X34	Y34	Z34	X35	Y35	Z35	X36	Y36	Z36	X37	Y37	Z37	X38	Y38	Z38	X39	Y39	Z39	X40	Y40	Z40	X41	Y41	Z41	X42	Y42	Z42	X43	Y43	Z43	X44	Y44	Z44

487	4.05000	138.61890	1460.68445	-117.73108	-144.70413	1368.69006	-5.54627	-189.22659	1474.59180	-128.49127	289.30121	1293.90100	-391.98026	69.62164	1364.02405	-536.55872	118.37161	1397.37134	-580.17950	34.94819	1410.76550	-608.94366	-351.57819	1324.84399	-408.81512	-119.61503	1354.72375	-540.32819	-161.09993	1399.73926	-578.94226	-74.08205	1397.35059	-595.14301	124.64366	1003.86188	-99.50482	-27.51057	1009.41071	24.51340	-67.75368	1015.18762	15.62615	-172.47354	997.82629	-107.71156	202.52518	691.89148	-183.39423	194.12842	666.34943	-228.90211	213.01936	648.53540	-172.57419	202.22519	625.57300	-211.26562	189.95702	507.33554	-188.02449	243.43283	367.20236	-158.47032	224.43048	318.23318	-179.16275	230.85513	336.16159	-121.15462	226.45006	292.11658	-137.75076	190.24934	71.82814	-85.76153	141.19197	33.77042	-42.30848	202.32553	31.57328	-237.53902	-229.52811	692.11713	-210.75133	-212.06880	651.21350	-248.07159	-247.31216	649.25751	-195.50853	-238.56563	625.00909	-232.18697	-222.09813	495.06363	-204.64600	-276.91699	309.30179	-142.11827	-262.96228	279.10281	-164.68489	-265.46530	276.61490	-104.04710	-270.71680	242.01288	-120.39560	-241.36925	75.47700	-100.41587	-195.69359	35.69876	-42.81024	-243.20370	32.85049	-240.92545	168.72343	876.55536	-102.74002	-213.19331	884.07794	-104.57365	16.15397	1016.02063	18.65890	-128.92380	953.73035	-162.41109	93.36125	957.63708	-150.94312
488	4.05833	138.56885	1459.44531	-119.07567	-144.90013	1367.39612	-6.44541	-189.05743	1472.77734	-129.82552	289.17932	1291.69226	-392.91489	69.77940	1361.59241	-537.81439	118.56517	1395.04761	-581.31342	35.13556	1408.35596	-610.22729	-351.42520	1322.80737	-409.89444	-119.31757	1352.23132	-541.53424	-160.89194	1397.35522	-580.17584	-73.73264	1394.79834	-596.40863	124.71341	1002.36353	-98.07858	-27.38875	1008.06244	26.24199	-67.78687	1013.83191	17.71183	-172.42590	995.99762	-106.11576	203.00139	691.68170	-183.25333	194.68793	666.43134	-228.90323	213.61633	648.25549	-172.67015	202.98785	625.62561	-211.61470	190.24019	506.85785	-188.93597	243.95001	366.86264	-159.50771	224.82404	317.76099	-180.11900	231.41301	335.86887	-122.10371	226.86081	291.78143	-138.36333	190.32234	71.76659	-85.89980	141.18846	33.75861	-42.31983	202.36333	31.60658	-237.49751	-229.68759	691.67957	-210.50520	-212.32674	651.05109	-248.22481	-247.46422	648.70068	-195.60989	-238.81235	624.77881	-232.43225	-222.21680	494.46259	-206.04762	-277.05795	309.11801	-142.98308	-263.06329	278.82114	-165.60341	-265.45166	276.47049	-104.83629	-270.75256	241.89169	-121.04921	-241.37253	75.48080	-100.49941	-195.60564	35.75293	-42.89085	-243.27202	32.88359	-240.91167	168.88594	875.68402	-101.56121	-212.92981	882.82318	-102.87204	16.19747	1014.73846	20.24059	-128.87042	951.78192	-160.75966	93.40829	955.98785	-149.32707
489	4.06667	138.58746	1457.51758	-120.27081	-145.05899	1366.17615	-7.29691	-188.87831	1470.94141	-131.11246	289.10297	1289.31201	-393.71466	69.76321	1359.15759	-538.96643	118.61019	1392.42725	-582.54010	35.26473	1405.76624	-611.48547	-351.14255	1320.63928	-410.97617	-119.86318	1350.00671	-542.79712	-160.77083	1394.91272	-581.59052	-73.69344	1392.42688	-597.64636	124.59972	1000.87164	-96.71780	-27.48358	1006.60510	27.66986	-67.69201	1012.43127	19.34690	-172.35890	994.06226	-104.48086	203.55000	691.42651	-183.00494	195.27513	666.64008	-228.90822	214.20996	647.95544	-172.98230	203.62970	625.65070	-212.09042	190.96117	506.48834	-189.99020	244.49362	366.38281	-160.53287	225.34248	317.24677	-180.91924	231.92448	335.56824	-123.21250	227.28062	291.38205	-139.29387	190.42378	71.70372	-86.04635	141.18382	33.77269	-42.32981	202.39957	31.62610	-237.47401	-229.85603	691.18164	-210.11995	-212.60580	650.87738	-248.33203	-247.70511	648.10840	-195.69987	-239.30188	624.63977	-233.07820	-222.47319	494.03394	-207.37238	-277.09039	308.86377	-143.91852	-263.17859	278.56396	-166.22932	-265.40619	276.43094	-105.73698	-270.67148	241.71501	-121.76865	-241.35956	75.44869	-100.57066	-195.54671	35.80741	-42.92880	-243.37199	32.90407	-240.88066	169.18811	874.76642	-99.87371	-212.68187	881.48682	-101.12825	16.18051	1013.47528	21.75293	-128.80006	949.67407	-158.98067	93.34099	954.23987	-147.74776
490	4.07500	138.60472	1455.59998	-121.46960	-145.11084	1364.84729	-8.14481	-188.74289	1468.99878	-132.49040	289.03220	1287.02368	-394.74380	69.86680	1356.82324	-540.12634	118.80074	1389.71973	-583.88647	35.47419	1403.19824	-612.84363	-350.82959	1318.33801	-412.18466	-118.56176	1347.44617	-544.27576	-160.58109	1392.36780	-583.03723	-73.57504	1389.88184	-599.27600	124.72492	999.22028	-95.24052	-27.44544	1005.25415	29.33248	-67.66927	1011.10553	20.70224	-172.32430	992.09393	-102.86936	203.86786	691.19983	-182.90250	195.76707	666.74408	-228.91368	214.91566	647.64252	-173.04254	204.24294	625.60876	-212.46735	191.89635	506.10504	-191.15294	245.18317	365.95102	-161.79376	225.79033	316.94171	-181.91443	232.43069	335.31137	-124.00083	227.69261	291.05179	-140.16064	190.54984	71.66541	-86.19783	141.19180	33.77840	-42.36138	202.46074	31.69418	-237.44211	-230.03853	690.61401	-209.82632	-212.75325	650.60992	-248.01497	-247.90533	647.50146	-195.66064	-239.49760	624.33124	-233.25645	-222.50838	493.44012	-208.76210	-277.10803	308.61200	-144.79274	-263.10193	278.17203	-167.18745	-265.46222	276.35715	-106.51001	-270.64655	241.54126	-122.59735	-241.30415	75.40919	-100.68648	-195.48569	35.83858	-42.99827	-243.45691	32.92334	-240.92097	169.19968	873.80536	-98.34530	-212.41446	880.11389	-99.44868	16.25253	1012.23505	23.17055	-128.75539	947.59210	-157.22514	93.41702	952.54932	-146.07451
